<svg width="14" height="14" viewBox="0 0 14 14" fill="none" xmlns="http://www.w3.org/2000/svg">
<path d="M10.5 0H3.5C2.57174 0 1.6815 0.368749 1.02513 1.02513C0.368749 1.6815 0 2.57174 0 3.5L0 10.5C0 11.4283 0.368749 12.3185 1.02513 12.9749C1.6815 13.6313 2.57174 14 3.5 14H10.5C11.4283 14 12.3185 13.6313 12.9749 12.9749C13.6313 12.3185 14 11.4283 14 10.5V3.5C14 2.57174 13.6313 1.6815 12.9749 1.02513C12.3185 0.368749 11.4283 0 10.5 0V0ZM10.6094 10.6094H7.33622V9.95312H9.48916L4.04688 4.51084V6.66378H3.39062V3.39062H6.66378V4.04688H4.51106L9.95312 9.48894V7.33622H10.6094V10.6094Z" fill="#120D26"/>
</svg>
