<svg width="16" height="16" viewBox="0 0 16 16" fill="none" xmlns="http://www.w3.org/2000/svg">
<path d="M6.50001 5.21529C6.61998 5.21529 6.73995 5.16954 6.83145 5.07797L7.08145 4.82797C7.26451 4.64491 7.26451 4.34813 7.08145 4.16507C6.89842 3.98201 6.6016 3.98201 6.41854 4.16507L6.16854 4.41507C5.87238 4.71126 6.0862 5.21529 6.50001 5.21529Z" fill="#120D26"/>
<path d="M8.50001 5.46529C8.61998 5.46529 8.73995 5.41954 8.83145 5.32797L9.08145 5.07797C9.26451 4.89491 9.26451 4.59813 9.08145 4.41507C8.89841 4.23201 8.6016 4.23201 8.41854 4.41507L8.16854 4.66507C7.87238 4.96126 8.0862 5.46529 8.50001 5.46529Z" fill="#120D26"/>
<path d="M6.50001 7.21529C6.61998 7.21529 6.73995 7.16954 6.83145 7.07797L7.08145 6.82797C7.26451 6.64491 7.26451 6.34813 7.08145 6.16507C6.89842 5.98201 6.6016 5.98201 6.41854 6.16507L6.16854 6.41507C5.87238 6.71126 6.0862 7.21529 6.50001 7.21529Z" fill="#120D26"/>
<path d="M0.46875 9.21529H15.5312C15.7901 9.21529 16 9.00542 16 8.74654C16 8.48767 15.7901 8.27779 15.5312 8.27779H14.9688V2.41673C14.9688 1.23923 14.0161 0.284729 12.837 0.284729C12.3446 0.284729 11.8642 0.456885 11.4844 0.768448L11.19 1.00998C10.5313 0.62226 9.66753 0.710823 9.1025 1.27585L8.39541 1.98295C8.21234 2.16601 8.21234 2.46279 8.39541 2.64585L10.1632 4.41364C10.3462 4.5967 10.643 4.59673 10.8261 4.41364C11.5767 3.66301 11.5301 3.70654 11.5332 3.70654C12.078 3.16173 12.1799 2.3391 11.8388 1.69039L12.0791 1.49326C12.2907 1.31964 12.5581 1.22339 12.8318 1.22226C13.4723 1.21651 14.0312 1.73723 14.0312 2.41673V8.27782C13.551 8.27782 0.944469 8.27782 0.46875 8.27782C0.209875 8.27782 0 8.4877 0 8.74657C0 9.00545 0.209875 9.21529 0.46875 9.21529Z" fill="#120D26"/>
<path d="M1.27924 10.1528L1.47895 11.2512C1.77617 12.886 2.9892 14.1556 4.53124 14.5705V15.2466C4.53124 15.5055 4.74111 15.7153 4.99999 15.7153C5.25886 15.7153 5.46874 15.5055 5.46874 15.2466V14.7121C5.61505 14.7176 10.4018 14.717 10.5312 14.7121V15.2466C10.5312 15.5055 10.7411 15.7153 11 15.7153C11.2589 15.7153 11.4687 15.5055 11.4687 15.2466V14.5705C13.0108 14.1556 14.2238 12.886 14.521 11.2512L14.7207 10.1528H1.27924V10.1528Z" fill="#120D26"/>
</svg>
