<svg width="16" height="16" viewBox="0 0 16 16" fill="none" xmlns="http://www.w3.org/2000/svg">
<g clip-path="url(#clip0_57_1548)">
<path d="M6 6.33334C6 6.66298 5.90225 6.98521 5.71912 7.25929C5.53598 7.53338 5.27568 7.747 4.97114 7.87314C4.6666 7.99929 4.33148 8.03229 4.00818 7.96799C3.68488 7.90368 3.38791 7.74494 3.15482 7.51186C2.92173 7.27877 2.763 6.9818 2.69869 6.65849C2.63438 6.33519 2.66739 6.00008 2.79353 5.69554C2.91968 5.39099 3.1333 5.1307 3.40738 4.94756C3.68146 4.76443 4.0037 4.66668 4.33333 4.66668C4.77536 4.66668 5.19928 4.84227 5.51184 5.15483C5.82441 5.46739 6 5.89132 6 6.33334ZM16 8.00001V6.66668C16 5.95943 15.719 5.28116 15.219 4.78106C14.7189 4.28096 14.0406 4.00001 13.3333 4.00001H10C9.29276 4.00001 8.61448 4.28096 8.11438 4.78106C7.61428 5.28116 7.33333 5.95943 7.33333 6.66668V8.00001H16ZM1.33333 9.33334V2.00001C1.33333 1.8232 1.2631 1.65363 1.13807 1.52861C1.01305 1.40358 0.843478 1.33334 0.666667 1.33334C0.489856 1.33334 0.320286 1.40358 0.195262 1.52861C0.0702379 1.65363 0 1.8232 0 2.00001L0 14C0 14.1768 0.0702379 14.3464 0.195262 14.4714C0.320286 14.5964 0.489856 14.6667 0.666667 14.6667C0.843478 14.6667 1.01305 14.5964 1.13807 14.4714C1.2631 14.3464 1.33333 14.1768 1.33333 14V12.6667H14.6667V14C14.6667 14.1768 14.7369 14.3464 14.8619 14.4714C14.987 14.5964 15.1565 14.6667 15.3333 14.6667C15.5101 14.6667 15.6797 14.5964 15.8047 14.4714C15.9298 14.3464 16 14.1768 16 14V9.33334H1.33333Z" fill="#120D26"/>
</g>
<defs>
<clipPath id="clip0_57_1548">
<rect width="16" height="16" fill="white"/>
</clipPath>
</defs>
</svg>
