<svg width="19" height="23" viewBox="0 0 19 23" fill="none" xmlns="http://www.w3.org/2000/svg">
<path d="M8.13721 18.3882H10.8625V19.7358H8.13721V18.3882Z" fill="#767676"/>
<path d="M17.5122 8.89053C17.444 5.37966 15.1067 2.41505 11.9093 1.40498V0H7.09065V1.4052C3.89329 2.41531 1.55591 5.37966 1.48768 8.89053H0.172363V14.2734C0.172363 15.0482 0.38992 15.719 0.801539 16.2133C1.15862 16.6421 1.63736 16.9074 2.17134 16.9779C2.85052 20.4493 5.90412 23 9.49999 23C13.0958 23 16.1494 20.4493 16.8287 16.9778C17.3627 16.9074 17.8414 16.6421 18.1985 16.2132C18.6101 15.719 18.8277 15.0481 18.8277 14.2733V8.89053H17.5122ZM7.09065 2.83318V5.60131H8.4383V1.34766H10.5617V5.60131H11.9093V2.83313C14.3513 3.78296 16.0998 6.13197 16.1643 8.89053H2.83569C2.90015 6.13197 4.64869 3.78301 7.09065 2.83318ZM17.48 14.2733C17.48 15.1091 17.1103 15.6491 16.5383 15.6491H15.6489L15.5798 16.2452C15.2219 19.3278 12.6081 21.6523 9.49999 21.6523C6.39189 21.6523 3.77811 19.3278 3.42017 16.2452L3.35094 15.6491H2.46163C1.88964 15.6491 1.52002 15.1091 1.52002 14.2733V13.557H17.48V14.2733H17.48ZM17.48 12.2093H1.52002V10.2382H17.48V12.2093H17.48Z" fill="#767676"/>
</svg>
