<svg width="23" height="23" viewBox="0 0 23 23" fill="none" xmlns="http://www.w3.org/2000/svg">
<path d="M11.5001 21.0833C16.7928 21.0833 21.0834 16.7927 21.0834 11.5C21.0834 6.20726 16.7928 1.91666 11.5001 1.91666C6.20735 1.91666 1.91675 6.20726 1.91675 11.5C1.91675 16.7927 6.20735 21.0833 11.5001 21.0833Z" stroke="#767676" stroke-width="1.5" stroke-linecap="round" stroke-linejoin="round"/>
<path d="M8.71118 8.625C8.93649 7.98451 9.3812 7.44443 9.96655 7.10042C10.5519 6.7564 11.2401 6.63065 11.9093 6.74543C12.5785 6.86021 13.1855 7.20812 13.6227 7.72754C14.06 8.24696 14.2993 8.90437 14.2983 9.58333C14.2983 11.5 11.4233 12.4583 11.4233 12.4583V14.0897" stroke="#767676" stroke-width="1.5" stroke-linecap="round" stroke-linejoin="round"/>
<path d="M11.5 16.2917H11.5104" stroke="#767676" stroke-width="1.5" stroke-linecap="round" stroke-linejoin="round"/>
</svg>
