<svg width="23" height="23" viewBox="0 0 23 23" fill="none" xmlns="http://www.w3.org/2000/svg">
<g clip-path="url(#clip0_61_586)">
<path d="M20.125 11.5H17.25C16.193 11.5 15.3333 12.3596 15.3333 13.4167C15.3333 14.4737 14.4737 15.3333 13.4167 15.3333H9.58333C8.52629 15.3333 7.66667 14.4737 7.66667 13.4167C7.66667 12.3596 6.80704 11.5 5.75 11.5H2.875C1.28992 11.5 0 12.7899 0 14.375V18.2083C0 20.8505 2.14954 23 4.79167 23H18.2083C20.8505 23 23 20.8505 23 18.2083V14.375C23 12.7899 21.7101 11.5 20.125 11.5ZM21.0833 18.2083C21.0833 19.7934 19.7934 21.0833 18.2083 21.0833H4.79167C3.20658 21.0833 1.91667 19.7934 1.91667 18.2083V14.375C1.91667 13.846 2.346 13.4167 2.875 13.4167L5.75 13.4148V13.4167C5.75 15.5307 7.46925 17.25 9.58333 17.25H13.4167C15.5307 17.25 17.25 15.5307 17.25 13.4167H20.125C20.654 13.4167 21.0833 13.846 21.0833 14.375V18.2083ZM6.98913 5.07246C6.61442 4.69775 6.61442 4.09208 6.98913 3.71737L10.1449 0.561583C10.5148 0.191667 11.0007 0.00575 11.4866 0.002875L11.5 0L11.5134 0.002875C12.0002 0.00575 12.4852 0.191667 12.8551 0.561583L16.0109 3.71737C16.3856 4.09208 16.3856 4.69775 16.0109 5.07246C15.824 5.25933 15.5787 5.35325 15.3333 5.35325C15.088 5.35325 14.8427 5.25933 14.6558 5.07246L12.4583 2.875V9.58333C12.4583 10.1133 12.03 10.5417 11.5 10.5417C10.97 10.5417 10.5417 10.1133 10.5417 9.58333V2.875L8.34421 5.07246C7.9695 5.44717 7.36383 5.44717 6.98913 5.07246Z" fill="#767676"/>
</g>
<defs>
<clipPath id="clip0_61_586">
<rect width="23" height="23" fill="white"/>
</clipPath>
</defs>
</svg>
