<svg width="19" height="23" viewBox="0 0 19 23" fill="none" xmlns="http://www.w3.org/2000/svg">
<path d="M9.5001 0.958336C7.59385 0.958336 5.76568 1.71559 4.41777 3.06351C3.06985 4.41142 2.3126 6.23959 2.3126 8.14584V13.7521L0.721762 16.1479C0.531083 16.4419 0.422928 16.7818 0.408614 17.1319C0.394301 17.482 0.474354 17.8295 0.640398 18.1381C0.806443 18.4467 1.05237 18.705 1.35245 18.8859C1.65253 19.0669 1.99573 19.1638 2.34614 19.1667H6.6251C6.6251 19.9292 6.928 20.6604 7.46716 21.1996C8.00633 21.7388 8.7376 22.0417 9.5001 22.0417C10.2626 22.0417 10.9939 21.7388 11.533 21.1996C12.0722 20.6604 12.3751 19.9292 12.3751 19.1667H16.6541C17.0067 19.1655 17.3525 19.069 17.6548 18.8873C17.957 18.7056 18.2045 18.4455 18.371 18.1346C18.5375 17.8238 18.6168 17.4736 18.6005 17.1213C18.5842 16.769 18.4729 16.4277 18.2784 16.1335L16.6876 13.7521V8.14584C16.6876 6.23959 15.9303 4.41142 14.5824 3.06351C13.2345 1.71559 11.4063 0.958336 9.5001 0.958336ZM9.5001 21.0833C8.99176 21.0833 8.50425 20.8814 8.14481 20.522C7.78536 20.1625 7.58343 19.675 7.58343 19.1667H11.4168C11.4168 19.675 11.2148 20.1625 10.8554 20.522C10.4959 20.8814 10.0084 21.0833 9.5001 21.0833ZM17.4782 16.6654C17.5893 16.8276 17.6479 17.0199 17.6459 17.2165C17.6459 17.4795 17.5414 17.7318 17.3554 17.9178C17.1694 18.1038 16.9171 18.2083 16.6541 18.2083H2.34614C2.08308 18.2083 1.83079 18.1038 1.64478 17.9178C1.45876 17.7318 1.35426 17.4795 1.35426 17.2165C1.35234 17.0199 1.41088 16.8276 1.52197 16.6654L3.18947 14.1594C3.24187 14.0814 3.2702 13.9898 3.27093 13.8958V8.14584C3.27093 6.49376 3.92721 4.90934 5.09541 3.74115C6.2636 2.57295 7.84802 1.91667 9.5001 1.91667C11.1522 1.91667 12.7366 2.57295 13.9048 3.74115C15.073 4.90934 15.7293 6.49376 15.7293 8.14584V13.8958C15.73 13.9898 15.7583 14.0814 15.8107 14.1594L17.4782 16.6654Z" fill="#767676" stroke="#767676" stroke-width="0.6"/>
</svg>
