<svg width="23" height="23" viewBox="0 0 23 23" fill="none" xmlns="http://www.w3.org/2000/svg">
<g clip-path="url(#clip0_24_100)">
<path d="M20.0624 4.68957L15.5702 0.197387C15.4438 0.0710215 15.2724 0 15.0938 0H5.21094C3.84859 0 2.74023 1.10836 2.74023 2.4707V20.5293C2.74023 21.8916 3.84859 23 5.21094 23H17.7891C19.1514 23 20.2598 21.8916 20.2598 20.5293V5.16602C20.2598 4.98732 20.1887 4.81594 20.0624 4.68957ZM15.7676 2.30058L17.9592 4.49219H15.7676V2.30058ZM17.7891 21.6523H5.21094C4.59169 21.6523 4.08789 21.1485 4.08789 20.5293V2.4707C4.08789 1.85146 4.59169 1.34766 5.21094 1.34766H14.4199V5.16602C14.4199 5.53815 14.7216 5.83984 15.0938 5.83984H18.9121V20.5293C18.9121 21.1485 18.4083 21.6523 17.7891 21.6523Z" fill="#767676"/>
<path d="M15.9922 9.07422C15.1407 9.07422 14.3752 8.6011 13.9944 7.83959L13.8996 7.64988C13.7854 7.42154 13.5521 7.27734 13.2969 7.27734H9.70312C9.44788 7.27734 9.21455 7.42154 9.10041 7.64984L9.00558 7.8395C8.62482 8.6011 7.85931 9.07422 7.00781 9.07422C6.63568 9.07422 6.33398 9.37591 6.33398 9.74805V13.5932C6.33398 15.105 6.81101 16.5453 7.71344 17.7582C8.61588 18.9711 9.85833 19.8419 11.3064 20.2763C11.3695 20.2952 11.4348 20.3047 11.5 20.3047C11.5652 20.3047 11.6305 20.2952 11.6936 20.2763C13.1417 19.8419 14.3841 18.9711 15.2866 17.7582C16.189 16.5453 16.666 15.105 16.666 13.5932V9.74805C16.666 9.37591 16.3643 9.07422 15.9922 9.07422ZM15.3184 13.5932C15.3184 16.0305 13.7923 18.1476 11.5 18.9237C9.20768 18.1476 7.68164 16.0305 7.68164 13.5932V10.3591C8.70141 10.1666 9.58799 9.5415 10.113 8.62495H12.887C13.412 9.54145 14.2986 10.1666 15.3184 10.3591V13.5932Z" fill="#767676"/>
<path d="M12.9295 12.044L10.8648 14.1086L10.0707 13.3145C9.80759 13.0514 9.38093 13.0514 9.11777 13.3145C8.85462 13.5777 8.85462 14.0043 9.11777 14.2675L10.3883 15.538C10.5199 15.6696 10.6924 15.7354 10.8648 15.7354C11.0372 15.7354 11.2097 15.6697 11.3412 15.538L13.8824 12.9969C14.1455 12.7337 14.1455 12.3071 13.8824 12.044C13.6193 11.7808 13.1926 11.7808 12.9295 12.044Z" fill="#767676"/>
</g>
<defs>
<clipPath id="clip0_24_100">
<rect width="23" height="23" fill="white"/>
</clipPath>
</defs>
</svg>
