<svg width="19" height="23" viewBox="0 0 19 23" fill="none" xmlns="http://www.w3.org/2000/svg">
<path d="M0.440918 0V23H13.8522L18.5594 18.2928V0L0.440918 0ZM1.78857 1.34766H17.2117V17.0554H12.6147V21.6523H1.78853V1.34766H1.78857ZM16.5433 18.403L13.9624 20.9839V18.403H16.5433Z" fill="#767676"/>
<path d="M6.625 4.11786H12.375V5.46552H6.625V4.11786Z" fill="#767676"/>
<path d="M3.98975 7.47197H15.0105V8.81963H3.98975V7.47197Z" fill="#767676"/>
<path d="M3.98975 10.347H15.0105V11.6947H3.98975V10.347Z" fill="#767676"/>
<path d="M3.98975 13.222H15.0105V14.5696H3.98975V13.222Z" fill="#767676"/>
<path d="M3.98975 17.0554H5.40474V18.403H3.98975V17.0554Z" fill="#767676"/>
<path d="M6.75244 17.0554H9.5002V18.403H6.75244V17.0554Z" fill="#767676"/>
</svg>
