<svg width="22" height="22" viewBox="0 0 22 22" fill="none" xmlns="http://www.w3.org/2000/svg">
<g clip-path="url(#clip0_32_43)">
<path d="M10.0835 3.66666H3.66683C3.1806 3.66666 2.71428 3.85981 2.37047 4.20363C2.02665 4.54744 1.8335 5.01376 1.8335 5.49999V18.3333C1.8335 18.8196 2.02665 19.2859 2.37047 19.6297C2.71428 19.9735 3.1806 20.1667 3.66683 20.1667H16.5002C16.9864 20.1667 17.4527 19.9735 17.7965 19.6297C18.1403 19.2859 18.3335 18.8196 18.3335 18.3333V11.9167" stroke="#DA517D" stroke-width="2" stroke-linecap="round" stroke-linejoin="round"/>
<path d="M16.9585 2.29168C17.3232 1.92701 17.8178 1.72214 18.3335 1.72214C18.8492 1.72214 19.3438 1.92701 19.7085 2.29168C20.0732 2.65635 20.278 3.15096 20.278 3.66668C20.278 4.18241 20.0732 4.67701 19.7085 5.04168L11.0002 13.75L7.3335 14.6667L8.25016 11L16.9585 2.29168Z" stroke="#DA517D" stroke-width="2" stroke-linecap="round" stroke-linejoin="round"/>
</g>
<defs>
<clipPath id="clip0_32_43">
<rect width="22" height="22" fill="white"/>
</clipPath>
</defs>
</svg>
