<svg width="28" height="26" viewBox="0 0 28 26" fill="none" xmlns="http://www.w3.org/2000/svg">
<path d="M7.29171 20.75C5.42388 20.75 3.76255 19.5542 3.15938 17.7738L3.11855 17.6397C2.97621 17.1683 2.91671 16.7717 2.91671 16.375V8.42065L0.086379 17.8683C-0.277621 19.2578 0.551879 20.6987 1.94371 21.0825L19.9839 25.9137C20.209 25.972 20.4342 26 20.6559 26C21.8179 26 22.8795 25.2288 23.177 24.0925L24.2282 20.75H7.29171Z" fill="#DA517D"/>
<path d="M10.5001 8.49998C11.7869 8.49998 12.8334 7.45348 12.8334 6.16665C12.8334 4.87981 11.7869 3.83331 10.5001 3.83331C9.21325 3.83331 8.16675 4.87981 8.16675 6.16665C8.16675 7.45348 9.21325 8.49998 10.5001 8.49998Z" fill="#DA517D"/>
<path d="M25.0834 0.333313H7.58341C5.97575 0.333313 4.66675 1.64231 4.66675 3.24998V16.0833C4.66675 17.691 5.97575 19 7.58341 19H25.0834C26.6911 19 28.0001 17.691 28.0001 16.0833V3.24998C28.0001 1.64231 26.6911 0.333313 25.0834 0.333313ZM7.58341 2.66665H25.0834C25.4054 2.66665 25.6667 2.92798 25.6667 3.24998V11.5321L21.9812 7.23181C21.5904 6.77331 21.0246 6.52831 20.4167 6.51431C19.8124 6.51781 19.2454 6.78615 18.8581 7.25048L14.5251 12.4515L13.1134 11.0433C12.3154 10.2453 11.0169 10.2453 10.2201 11.0433L7.00008 14.2621V3.24998C7.00008 2.92798 7.26141 2.66665 7.58341 2.66665Z" fill="#DA517D"/>
</svg>
