<svg width="17" height="21" viewBox="0 0 17 21" fill="none" xmlns="http://www.w3.org/2000/svg">
<path fill-rule="evenodd" clip-rule="evenodd" d="M8.52875 0.916676C10.6946 0.926259 12.7646 1.78876 14.2787 3.30293C15.8025 4.82668 16.6554 6.88709 16.6458 9.02418V9.07209C16.5883 11.9758 14.9592 14.6496 12.9275 16.7388C11.7775 17.9175 10.5029 18.9621 9.11333 19.8438C8.73958 20.16 8.19333 20.16 7.81958 19.8438C5.75916 18.5021 3.93833 16.8154 2.4625 14.8508C1.16875 13.145 0.430831 11.0942 0.354164 8.95709C0.373331 4.50084 4.03416 0.907092 8.52875 0.916676ZM8.52875 11.7075C9.20917 11.7075 9.86083 11.4488 10.34 10.9792C10.8383 10.4904 11.1172 9.83972 11.1172 9.15834C11.1172 7.74001 9.95667 6.59959 8.52875 6.59959C7.10083 6.59959 5.95083 7.74001 5.95083 9.15834C5.95083 10.5585 7.08167 11.6883 8.5 11.7075H8.52875Z" fill="#200E32"/>
</svg>
