<svg width="19" height="19" viewBox="0 0 19 19" fill="none" xmlns="http://www.w3.org/2000/svg">
<path d="M12.9376 13.6455L13.2506 13.9584L17.293 18.0009L17.9999 17.294L13.9574 13.2516L13.6444 12.9385L13.9172 12.5899C14.9424 11.2795 15.4996 9.66376 15.5 8L12.9376 13.6455ZM12.9376 13.6455L12.589 13.9181M12.9376 13.6455L12.589 13.9181M12.589 13.9181C11.2787 14.9428 9.66333 15.4996 8 15.5L12.589 13.9181ZM7.9999 15.5C3.86509 15.4999 0.5 12.1348 0.5 8C0.5 3.86514 3.86514 0.5 8 0.5C12.1348 0.5 15.4999 3.86508 15.5 7.99988L7.9999 15.5ZM14.5 8C14.5 4.41486 11.5851 1.5 8 1.5C4.41486 1.5 1.5 4.41486 1.5 8C1.5 11.5851 4.41486 14.5 8 14.5C11.5851 14.5 14.5 11.5851 14.5 8Z" stroke="#D4D4D4"/>
</svg>
