<svg width="28" height="28" viewBox="0 0 28 28" fill="none" xmlns="http://www.w3.org/2000/svg">
<path d="M7.02081 14.906H5.76514C5.43573 14.906 5.13837 15.1021 5.00806 15.4042L1.53198 23.4981L9.78723 19.2819C8.79901 17.9145 7.82126 16.4063 7.02081 14.906Z" fill="#120D26"/>
<path d="M22.9917 15.4042C22.8616 15.1021 22.5641 14.906 22.2349 14.906H20.9792C19.4676 17.7386 17.2654 20.6659 15.8644 22.2764C14.8792 23.4065 13.1194 23.4052 12.1356 22.2764C12.035 22.1609 11.5097 21.5527 10.7862 20.6174L9.29785 21.3779L14.9277 26.9969L25.5952 21.4666L22.9917 15.4042Z" fill="#120D26"/>
<path d="M0.516324 25.8636L0.0672884 26.9092C-0.165133 27.4503 0.23306 28.0547 0.824155 28.0547H12.9129C12.9885 27.9985 12.9893 28.0019 13.3952 27.7915L7.75708 22.1651L0.516324 25.8636Z" fill="#120D26"/>
<path d="M27.9326 26.9092L26.2459 22.9816L16.4602 28.0547H27.1758C27.7656 28.0547 28.1655 27.4514 27.9326 26.9092Z" fill="#120D26"/>
<path d="M14.8235 7.45523C14.8235 7.00192 14.454 6.63342 14 6.63342C13.5459 6.63342 13.1765 7.00192 13.1765 7.45523C13.1765 7.90833 13.5459 8.27704 14 8.27704C14.454 8.27704 14.8235 7.90833 14.8235 7.45523Z" fill="#120D26"/>
<path d="M14.6215 21.1431C14.8988 20.8249 21.4115 13.2912 21.4115 8.11257C21.4115 -2.56602 6.58862 -2.69633 6.58862 8.11257C6.58862 13.2912 13.1013 20.8249 13.3786 21.1431C13.707 21.5198 14.2938 21.5193 14.6215 21.1431ZM11.5295 7.45525C11.5295 6.09576 12.6378 4.98983 14.0001 4.98983C15.3621 4.98983 16.4704 6.09576 16.4704 7.45525C16.4704 8.81454 15.3621 9.92046 14.0001 9.92046C12.6378 9.92046 11.5295 8.81454 11.5295 7.45525Z" fill="#120D26"/>
</svg>
