<svg width="125" height="116" viewBox="0 0 125 116" fill="none" xmlns="http://www.w3.org/2000/svg">
<path d="M15.12 92.32V109H12.384V101.704H4.536V109H1.8V92.32H4.536V99.472H12.384V92.32H15.12ZM26.3299 109.168C24.7779 109.168 23.3459 108.808 22.0339 108.088C20.7379 107.352 19.7059 106.336 18.9379 105.04C18.1859 103.728 17.8099 102.256 17.8099 100.624C17.8099 98.992 18.1859 97.528 18.9379 96.232C19.7059 94.936 20.7379 93.928 22.0339 93.208C23.3459 92.472 24.7779 92.104 26.3299 92.104C27.8979 92.104 29.3299 92.472 30.6259 93.208C31.9379 93.928 32.9699 94.936 33.7219 96.232C34.4739 97.528 34.8499 98.992 34.8499 100.624C34.8499 102.256 34.4739 103.728 33.7219 105.04C32.9699 106.336 31.9379 107.352 30.6259 108.088C29.3299 108.808 27.8979 109.168 26.3299 109.168ZM26.3299 106.792C27.4339 106.792 28.4179 106.544 29.2819 106.048C30.1459 105.536 30.8179 104.816 31.2979 103.888C31.7939 102.944 32.0419 101.856 32.0419 100.624C32.0419 99.392 31.7939 98.312 31.2979 97.384C30.8179 96.456 30.1459 95.744 29.2819 95.248C28.4179 94.752 27.4339 94.504 26.3299 94.504C25.2259 94.504 24.2419 94.752 23.3779 95.248C22.5139 95.744 21.8339 96.456 21.3379 97.384C20.8579 98.312 20.6179 99.392 20.6179 100.624C20.6179 101.856 20.8579 102.944 21.3379 103.888C21.8339 104.816 22.5139 105.536 23.3779 106.048C24.2419 106.544 25.2259 106.792 26.3299 106.792ZM55.1102 92.32V109H52.3742V97.576L47.2862 109H45.3902L40.2782 97.576V109H37.5422V92.32H40.4942L46.3502 105.4L52.1822 92.32H55.1102ZM61.4423 94.528V99.424H67.2023V101.656H61.4423V106.768H67.9223V109H58.7063V92.296H67.9223V94.528H61.4423ZM93.0122 92.32L88.0682 109H84.9722L81.4682 96.376L77.7482 109L74.6762 109.024L69.9482 92.32H72.8522L76.3082 105.904L80.0522 92.32H83.1242L86.6042 105.832L90.0842 92.32H93.0122ZM105.325 105.592H98.3408L97.1408 109H94.2848L100.261 92.296H103.429L109.405 109H106.525L105.325 105.592ZM104.557 103.36L101.845 95.608L99.1088 103.36H104.557ZM124.363 92.32L118.843 102.952V109H116.107V102.952L110.563 92.32H113.611L117.475 100.504L121.339 92.32H124.363Z" fill="white"/>
<g clip-path="url(#clip0_89_2272)">
<path d="M52.2163 20.173H56.6108V24.5675H52.2163V20.173Z" fill="white"/>
<path d="M52.2163 30.2594H56.6108V34.6539H52.2163V30.2594Z" fill="white"/>
<path d="M72.3892 30.2594H76.7837V34.6539H72.3892V30.2594Z" fill="white"/>
<path d="M82.4757 30.2594H86.8702V34.6539H82.4757V30.2594Z" fill="white"/>
<path d="M72.3892 40.3461H76.7837V44.7406H72.3892V40.3461Z" fill="white"/>
<path d="M82.4757 40.3461H86.8702V44.7406H82.4757V40.3461Z" fill="white"/>
<path d="M72.3892 50.4325H76.7837V54.827H72.3892V50.4325Z" fill="white"/>
<path d="M82.4757 50.4325H86.8702V54.827H82.4757V50.4325Z" fill="white"/>
<path d="M72.3892 60.519H76.7837V64.9136H72.3892V60.519Z" fill="white"/>
<path d="M82.4757 60.519H86.8702V64.9136H82.4757V60.519Z" fill="white"/>
<path d="M42.1298 30.2594H46.5243V34.6539H42.1298V30.2594Z" fill="white"/>
<path d="M52.2163 40.3461H56.6108V44.7406H52.2163V40.3461Z" fill="white"/>
<path d="M42.1298 40.3461H46.5243V44.7406H42.1298V40.3461Z" fill="white"/>
<path d="M52.2163 50.4325H56.6108V54.827H52.2163V50.4325Z" fill="white"/>
<path d="M42.1298 50.4325H46.5243V54.827H42.1298V50.4325Z" fill="white"/>
<path d="M96.9567 70.6055V20.173H66.6973V9.68994L61.654 10.5305V0H37.0865V14.6251L32.0433 15.4657V70.6055H27V75H102V70.6055H96.9567ZM92.5622 24.5675V70.6055H66.6973V24.5675H92.5622ZM41.481 4.39453H57.2594V11.2629L41.481 13.8927V4.39453ZM36.4378 19.1884L62.3027 14.8775V20.173V70.6055H56.6108V60.519H42.1298V70.6055H36.4378V19.1884ZM52.2163 70.6055H46.5243V64.9135H52.2163V70.6055Z" fill="white"/>
</g>
<defs>
<clipPath id="clip0_89_2272">
<rect width="75" height="75" fill="white" transform="translate(27)"/>
</clipPath>
</defs>
</svg>
