<svg width="16" height="16" viewBox="0 0 16 16" fill="none" xmlns="http://www.w3.org/2000/svg">
<g clip-path="url(#clip0_104_3157)">
<path d="M12 13.3333C11.0807 13.3333 10.3334 12.5853 10.3334 11.6667C10.3334 10.748 11.0807 10 12 10C12.9194 10 13.6667 10.748 13.6667 11.6667C13.6667 12.5853 12.9194 13.3333 12 13.3333ZM12 10.6667C11.4487 10.6667 11 11.1153 11 11.6667C11 12.218 11.4487 12.6667 12 12.6667C12.5514 12.6667 13 12.218 13 11.6667C13 11.1153 12.5514 10.6667 12 10.6667Z" fill="#8391A1"/>
<path d="M12.5159 16H11.4833C11.1433 16 10.8619 15.7413 10.8293 15.398L10.7473 14.5493C10.5533 14.4606 10.3686 14.35 10.1946 14.2193L9.44728 14.5666C9.13328 14.7113 8.77128 14.592 8.60261 14.29L8.08595 13.3693C7.92061 13.0746 7.99928 12.7013 8.26928 12.5006L8.93595 12.0073C8.92328 11.9033 8.91395 11.7873 8.91395 11.666C8.91395 11.5446 8.92395 11.4286 8.93595 11.3246L8.26928 10.8313C7.99928 10.6306 7.92061 10.258 8.08661 9.96265L8.60195 9.04198C8.77195 8.73998 9.13395 8.62131 9.44661 8.76531L10.1946 9.11265C10.3686 8.98198 10.5533 8.87131 10.7473 8.78265L10.8293 7.93331C10.8626 7.59198 11.1439 7.33331 11.4839 7.33331H12.5166C12.8566 7.33331 13.1379 7.59198 13.1706 7.93531L13.2526 8.78398C13.4466 8.87331 13.6313 8.98331 13.8053 9.11398L14.5526 8.76665C14.8673 8.62265 15.2286 8.74131 15.3973 9.04331L15.9139 9.96398C16.0793 10.2586 16.0006 10.632 15.7306 10.8326L15.0639 11.326C15.0766 11.43 15.0859 11.546 15.0859 11.6673C15.0859 11.7886 15.0759 11.9046 15.0639 12.0086L15.7306 12.502C16.0006 12.7026 16.0793 13.0753 15.9133 13.3706L15.3979 14.2913C15.2286 14.5933 14.8653 14.7126 14.5533 14.568L13.8053 14.2206C13.6313 14.3513 13.4466 14.462 13.2526 14.5506L13.1706 15.4C13.1373 15.7413 12.8559 16 12.5159 16ZM10.2419 13.4966C10.3206 13.4966 10.3979 13.5246 10.4599 13.578C10.6773 13.766 10.9186 13.9106 11.1766 14.0073C11.2959 14.052 11.3793 14.1606 11.3913 14.2873L11.4926 15.3346L12.5159 15.3333L12.6079 14.2866C12.6206 14.16 12.7039 14.0513 12.8226 14.0066C13.0806 13.91 13.3219 13.7653 13.5393 13.5773C13.6386 13.4913 13.7779 13.4713 13.8979 13.5273L14.8333 13.962L15.3313 13.0433L14.5053 12.4246C14.4046 12.35 14.3539 12.2246 14.3753 12.1006C14.3999 11.9593 14.4186 11.816 14.4186 11.6673C14.4186 11.5186 14.3999 11.3753 14.3753 11.234C14.3546 11.11 14.4046 10.9846 14.5053 10.91L15.3333 10.2966L14.8159 9.36931L13.8986 9.80598C13.7793 9.86131 13.6393 9.84198 13.5399 9.75531C13.3233 9.56731 13.0813 9.42331 12.8233 9.32598C12.7039 9.28131 12.6206 9.17265 12.6086 9.04598L12.5073 7.99865L11.4839 7.99998L11.3919 9.04665C11.3793 9.17331 11.2959 9.28198 11.1773 9.32665C10.9193 9.42331 10.6779 9.56798 10.4606 9.75598C10.3613 9.84131 10.2213 9.86065 10.1019 9.80598L9.16661 9.37131L8.66861 10.29L9.49461 10.9086C9.59528 10.9833 9.64595 11.1086 9.62461 11.2326C9.59995 11.374 9.58128 11.5173 9.58128 11.666C9.58128 11.8146 9.59995 11.958 9.62461 12.0993C9.64528 12.2233 9.59528 12.3486 9.49461 12.4233L8.66661 13.0366L9.18395 13.964L10.1013 13.5273C10.1466 13.5066 10.1946 13.4966 10.2419 13.4966Z" fill="#8391A1"/>
<path d="M2.33333 16H1C0.448667 16 0 15.5513 0 15V11C0 10.4487 0.448667 10 1 10H2.33333C2.88467 10 3.33333 10.4487 3.33333 11V15C3.33333 15.5513 2.88467 16 2.33333 16ZM1 10.6667C0.816667 10.6667 0.666667 10.816 0.666667 11V15C0.666667 15.184 0.816667 15.3333 1 15.3333H2.33333C2.51667 15.3333 2.66667 15.184 2.66667 15V11C2.66667 10.816 2.51667 10.6667 2.33333 10.6667H1Z" fill="#8391A1"/>
<path d="M6.33333 16H5C4.44867 16 4 15.5513 4 15V8.33331C4 7.78198 4.44867 7.33331 5 7.33331H6.33333C6.88467 7.33331 7.33333 7.78198 7.33333 8.33331V15C7.33333 15.5513 6.88467 16 6.33333 16ZM5 7.99998C4.81667 7.99998 4.66667 8.14931 4.66667 8.33331V15C4.66667 15.184 4.81667 15.3333 5 15.3333H6.33333C6.51667 15.3333 6.66667 15.184 6.66667 15V8.33331C6.66667 8.14931 6.51667 7.99998 6.33333 7.99998H5Z" fill="#8391A1"/>
<path d="M8.33333 7.33331C8.14933 7.33331 8 7.18398 8 6.99998V4.33331C8 3.78198 8.44867 3.33331 9 3.33331H10.3333C10.8847 3.33331 11.3333 3.78198 11.3333 4.33331V5.66665C11.3333 5.85065 11.184 5.99998 11 5.99998C10.816 5.99998 10.6667 5.85065 10.6667 5.66665V4.33331C10.6667 4.14931 10.5167 3.99998 10.3333 3.99998H9C8.81667 3.99998 8.66667 4.14931 8.66667 4.33331V6.99998C8.66667 7.18398 8.51733 7.33331 8.33333 7.33331Z" fill="#8391A1"/>
<path d="M15 7.33333C14.816 7.33333 14.6667 7.184 14.6667 7V1C14.6667 0.816 14.5167 0.666667 14.3333 0.666667H13C12.8167 0.666667 12.6667 0.816 12.6667 1V5.66667C12.6667 5.85067 12.5173 6 12.3333 6C12.1493 6 12 5.85067 12 5.66667V1C12 0.448667 12.4487 0 13 0H14.3333C14.8847 0 15.3333 0.448667 15.3333 1V7C15.3333 7.184 15.184 7.33333 15 7.33333Z" fill="#8391A1"/>
</g>
<defs>
<clipPath id="clip0_104_3157">
<rect width="16" height="16" fill="white"/>
</clipPath>
</defs>
</svg>
