<svg width="24" height="28" viewBox="0 0 24 28" fill="none" xmlns="http://www.w3.org/2000/svg">
<path d="M18.8403 4.81996H14.0203V0L18.8403 4.81996Z" fill="#120D26"/>
<path d="M18.8402 5.44218V23.2001H0.360107V0H13.3979V5.44218H18.8402ZM8.14038 2.56358C7.9685 2.56358 7.82924 2.70291 7.82924 2.87472C7.82924 3.04653 7.9685 3.18586 8.14038 3.18586H11.0599C11.2317 3.18586 11.3711 3.04653 11.3711 2.87472C11.3711 2.70291 11.2317 2.56358 11.0599 2.56358H8.14038ZM13.2154 7.75417C13.0435 7.75417 12.9043 7.89343 12.9043 8.06531C12.9043 8.23713 13.0435 8.37639 13.2154 8.37639H16.6962C16.868 8.37639 17.0073 8.23713 17.0073 8.06531C17.0073 7.89343 16.868 7.75417 16.6962 7.75417H13.2154ZM2.50397 7.75417C2.33216 7.75417 2.1929 7.89343 2.1929 8.06531C2.1929 8.23713 2.33216 8.37639 2.50397 8.37639H11.5754C11.7472 8.37639 11.8866 8.23713 11.8866 8.06531C11.8866 7.89343 11.7472 7.75417 11.5754 7.75417H2.50397ZM7.25534 10.5665C7.08353 10.5665 6.94427 10.7058 6.94427 10.8776C6.94427 11.0494 7.08353 11.1888 7.25534 11.1888H16.6962C16.868 11.1888 17.0073 11.0494 17.0073 10.8776C17.0073 10.7058 16.868 10.5665 16.6962 10.5665H7.25534ZM2.50397 10.5665C2.33216 10.5665 2.1929 10.7058 2.1929 10.8776C2.1929 11.0494 2.33216 11.1888 2.50397 11.1888H5.61542C5.78723 11.1888 5.92656 11.0494 5.92656 10.8776C5.92656 10.7058 5.78723 10.5665 5.61542 10.5665H2.50397ZM12.2154 13.3789C12.0435 13.3789 11.9043 13.5182 11.9043 13.69C11.9043 13.8618 12.0435 14.0012 12.2154 14.0012H16.6962C16.868 14.0012 17.0073 13.8618 17.0073 13.69C17.0073 13.5182 16.868 13.3789 16.6962 13.3789H12.2154ZM2.50397 13.3789C2.33216 13.3789 2.1929 13.5182 2.1929 13.69C2.1929 13.8618 2.33216 14.0012 2.50397 14.0012H10.5754C10.7472 14.0012 10.8866 13.8618 10.8866 13.69C10.8866 13.5182 10.7472 13.3789 10.5754 13.3789H2.50397ZM9.73534 16.1913C9.56353 16.1913 9.42427 16.3305 9.42427 16.5024C9.42427 16.6742 9.56353 16.8135 9.73534 16.8135H16.6962C16.868 16.8135 17.0073 16.6742 17.0073 16.5024C17.0073 16.3305 16.868 16.1913 16.6962 16.1913H9.73534ZM2.50397 16.1913C2.33216 16.1913 2.1929 16.3305 2.1929 16.5024C2.1929 16.6742 2.33216 16.8135 2.50397 16.8135H8.09542C8.26723 16.8135 8.40656 16.6742 8.40656 16.5024C8.40656 16.3305 8.26723 16.1913 8.09542 16.1913H2.50397ZM8.33538 19.0037C8.16356 19.0037 8.02424 19.143 8.02424 19.3148C8.02424 19.4866 8.16356 19.6259 8.33538 19.6259H16.6962C16.868 19.6259 17.0073 19.4866 17.0073 19.3148C17.0073 19.143 16.868 19.0037 16.6962 19.0037H8.33538ZM2.50397 19.0037C2.33216 19.0037 2.1929 19.143 2.1929 19.3148C2.1929 19.4866 2.33216 19.6259 2.50397 19.6259H6.69539C6.86721 19.6259 7.00653 19.4866 7.00653 19.3148C7.00653 19.143 6.86721 19.0037 6.69539 19.0037H2.50397ZM7.02649 4.50883C6.85468 4.50883 6.71542 4.64815 6.71542 4.81996C6.71542 4.99178 6.85468 5.13104 7.02649 5.13104H12.1737C12.3456 5.13104 12.4849 4.99178 12.4849 4.81996C12.4849 4.64815 12.3456 4.50883 12.1737 4.50883H7.02649Z" fill="#120D26"/>
<path d="M19.4623 23.8223H2.76001V25.6001H21.2401V2.39996H17.3L19.4623 4.56224V23.8223Z" fill="#120D26"/>
<path d="M21.8625 4.79993V26.2223H5.16016V28H23.6402V4.79993H21.8625Z" fill="#120D26"/>
</svg>
