<svg width="70" height="70" viewBox="0 0 70 70" fill="none" xmlns="http://www.w3.org/2000/svg">
<path d="M52.5 17.5C52.5 12.8587 50.6563 8.40752 47.3744 5.12563C44.0925 1.84374 39.6413 0 35 0C30.3587 0 25.9075 1.84374 22.6256 5.12563C19.3437 8.40752 17.5 12.8587 17.5 17.5H0V61.25C0 63.5706 0.921872 65.7962 2.56282 67.4372C4.20376 69.0781 6.42936 70 8.75 70H61.25C63.5706 70 65.7962 69.0781 67.4372 67.4372C69.0781 65.7962 70 63.5706 70 61.25V17.5H52.5ZM35 5.83333C38.0942 5.83333 41.0617 7.0625 43.2496 9.25042C45.4375 11.4383 46.6667 14.4058 46.6667 17.5H23.3333C23.3333 14.4058 24.5625 11.4383 26.7504 9.25042C28.9383 7.0625 31.9058 5.83333 35 5.83333ZM64.1667 61.25C64.1667 62.0235 63.8594 62.7654 63.3124 63.3124C62.7654 63.8594 62.0235 64.1667 61.25 64.1667H8.75C7.97645 64.1667 7.23459 63.8594 6.68761 63.3124C6.14062 62.7654 5.83333 62.0235 5.83333 61.25V23.3333H17.5V29.1667H23.3333V23.3333H46.6667V29.1667H52.5V23.3333H64.1667V61.25Z" fill="white"/>
</svg>