<svg width="24" height="24" viewBox="0 0 24 24" fill="none" xmlns="http://www.w3.org/2000/svg">
<path d="M12 2.24982C6.62391 2.24982 2.25 6.62372 2.25 11.9998C2.25 17.3759 6.62391 21.7498 12 21.7498C17.3761 21.7498 21.75 17.3759 21.75 11.9998C21.75 6.62372 17.3761 2.24982 12 2.24982ZM13.5 16.4998H10.5C10.3011 16.4998 10.1103 16.4208 9.96967 16.2801C9.82902 16.1395 9.75 15.9487 9.75 15.7498C9.75 15.5509 9.82902 15.3601 9.96967 15.2195C10.1103 15.0788 10.3011 14.9998 10.5 14.9998H13.5C13.6989 14.9998 13.8897 15.0788 14.0303 15.2195C14.171 15.3601 14.25 15.5509 14.25 15.7498C14.25 15.9487 14.171 16.1395 14.0303 16.2801C13.8897 16.4208 13.6989 16.4998 13.5 16.4998ZM15.75 13.4998H8.25C8.05109 13.4998 7.86032 13.4208 7.71967 13.2801C7.57902 13.1395 7.5 12.9487 7.5 12.7498C7.5 12.5509 7.57902 12.3601 7.71967 12.2195C7.86032 12.0788 8.05109 11.9998 8.25 11.9998H15.75C15.9489 11.9998 16.1397 12.0788 16.2803 12.2195C16.421 12.3601 16.5 12.5509 16.5 12.7498C16.5 12.9487 16.421 13.1395 16.2803 13.2801C16.1397 13.4208 15.9489 13.4998 15.75 13.4998ZM17.25 10.4998H6.75C6.55109 10.4998 6.36032 10.4208 6.21967 10.2801C6.07902 10.1395 6 9.94873 6 9.74982C6 9.5509 6.07902 9.36014 6.21967 9.21949C6.36032 9.07883 6.55109 8.99982 6.75 8.99982H17.25C17.4489 8.99982 17.6397 9.07883 17.7803 9.21949C17.921 9.36014 18 9.5509 18 9.74982C18 9.94873 17.921 10.1395 17.7803 10.2801C17.6397 10.4208 17.4489 10.4998 17.25 10.4998Z" fill="#E43F6F"/>
</svg>
