<svg width="17" height="23" viewBox="0 0 17 23" fill="none" xmlns="http://www.w3.org/2000/svg">
<path d="M8.35163 0C7.13164 0 5.96161 0.484641 5.09894 1.34731C4.23627 2.20998 3.75163 3.38 3.75163 4.6V5.36667H3.1153C2.46985 5.36599 1.84902 5.61427 1.38203 6.05984C0.915049 6.5054 0.637905 7.1139 0.608298 7.75867L0.00263131 20.3703C-0.0128948 20.7095 0.0404095 21.0482 0.159331 21.3662C0.278253 21.6842 0.460329 21.9748 0.694585 22.2205C0.928841 22.4662 1.21043 22.662 1.52237 22.7959C1.83431 22.9299 2.17014 22.9993 2.50963 23H14.1936C14.5331 22.9993 14.869 22.9299 15.1809 22.7959C15.4928 22.662 15.7744 22.4662 16.0087 22.2205C16.2429 21.9748 16.425 21.6842 16.5439 21.3662C16.6629 21.0482 16.7162 20.7095 16.7006 20.3703L16.095 7.75867C16.0654 7.1139 15.7882 6.5054 15.3212 6.05984C14.8542 5.61427 14.2334 5.36599 13.588 5.36667H12.9516V4.6C12.9516 3.38 12.467 2.20998 11.6043 1.34731C10.7417 0.484641 9.57163 0 8.35163 0ZM5.28496 4.6C5.28496 3.78667 5.60806 3.00665 6.18317 2.43154C6.75828 1.85643 7.5383 1.53333 8.35163 1.53333C9.16496 1.53333 9.94498 1.85643 10.5201 2.43154C11.0952 3.00665 11.4183 3.78667 11.4183 4.6V5.36667H5.28496V4.6ZM14.5616 7.82767L15.1673 20.447C15.1721 20.5789 15.1509 20.7104 15.1048 20.834C15.0588 20.9577 14.9888 21.0711 14.899 21.1677C14.8072 21.2619 14.6975 21.3369 14.5764 21.3882C14.4553 21.4396 14.3252 21.4662 14.1936 21.4667H2.50963C2.37809 21.4662 2.24795 21.4396 2.12684 21.3882C2.00573 21.3369 1.89607 21.2619 1.8043 21.1677C1.71442 21.0711 1.64447 20.9577 1.59842 20.834C1.55238 20.7104 1.53116 20.5789 1.53596 20.447L2.14163 7.82767C2.15346 7.57749 2.26125 7.34149 2.44258 7.16873C2.62391 6.99596 2.86484 6.89972 3.1153 6.9H13.588C13.8384 6.89972 14.0794 6.99596 14.2607 7.16873C14.442 7.34149 14.5498 7.57749 14.5616 7.82767Z" fill="#D4D4D4"/>
<path d="M4.79416 9.34565C5.21758 9.34565 5.56083 9.0024 5.56083 8.57899C5.56083 8.15557 5.21758 7.81232 4.79416 7.81232C4.37074 7.81232 4.0275 8.15557 4.0275 8.57899C4.0275 9.0024 4.37074 9.34565 4.79416 9.34565Z" fill="#D4D4D4"/>
<path d="M11.9088 9.34565C12.3322 9.34565 12.6755 9.0024 12.6755 8.57899C12.6755 8.15557 12.3322 7.81232 11.9088 7.81232C11.4854 7.81232 11.1421 8.15557 11.1421 8.57899C11.1421 9.0024 11.4854 9.34565 11.9088 9.34565Z" fill="#D4D4D4"/>
</svg>
