<svg width="23" height="23" viewBox="0 0 23 23" fill="none" xmlns="http://www.w3.org/2000/svg">
<path d="M11.5003 0.958313C9.5941 0.958313 7.76593 1.71557 6.41801 3.06348C5.07009 4.4114 4.31284 6.23957 4.31284 8.14581V13.7521L2.72201 16.1479C2.53133 16.4419 2.42317 16.7817 2.40886 17.1319C2.39454 17.482 2.4746 17.8295 2.64064 18.1381C2.80669 18.4467 3.05262 18.7049 3.3527 18.8859C3.65278 19.0668 3.99598 19.1638 4.34638 19.1666H8.62534C8.62534 19.9291 8.92824 20.6604 9.46741 21.1996C10.0066 21.7387 10.7378 22.0416 11.5003 22.0416C12.2628 22.0416 12.9941 21.7387 13.5333 21.1996C14.0724 20.6604 14.3753 19.9291 14.3753 19.1666H18.6543C19.007 19.1655 19.3527 19.0689 19.655 18.8873C19.9573 18.7056 20.2048 18.4455 20.3712 18.1346C20.5377 17.8237 20.617 17.4736 20.6007 17.1213C20.5844 16.769 20.4732 16.4277 20.2787 16.1335L18.6878 13.7521V8.14581C18.6878 6.23957 17.9306 4.4114 16.5827 3.06348C15.2348 1.71557 13.4066 0.958313 11.5003 0.958313ZM11.5003 21.0833C10.992 21.0833 10.5045 20.8814 10.1451 20.5219C9.78561 20.1625 9.58367 19.675 9.58367 19.1666H13.417C13.417 19.675 13.2151 20.1625 12.8556 20.5219C12.4962 20.8814 12.0087 21.0833 11.5003 21.0833ZM19.4785 16.6654C19.5896 16.8275 19.6481 17.0199 19.6462 17.2164C19.6462 17.4795 19.5417 17.7318 19.3557 17.9178C19.1696 18.1038 18.9174 18.2083 18.6543 18.2083H4.34638C4.08332 18.2083 3.83103 18.1038 3.64502 17.9178C3.45901 17.7318 3.35451 17.4795 3.35451 17.2164C3.35258 17.0199 3.41113 16.8275 3.52221 16.6654L5.18971 14.1594C5.24211 14.0814 5.27044 13.9897 5.27117 13.8958V8.14581C5.27117 6.49373 5.92746 4.90932 7.09565 3.74113C8.26385 2.57293 9.84826 1.91665 11.5003 1.91665C13.1524 1.91665 14.7368 2.57293 15.905 3.74113C17.0732 4.90932 17.7295 6.49373 17.7295 8.14581V13.8958C17.7302 13.9897 17.7586 14.0814 17.811 14.1594L19.4785 16.6654Z" fill="#767676" stroke="#767676" stroke-width="0.6"/>
</svg>
