<svg width="19" height="19" viewBox="0 0 19 19" fill="none" xmlns="http://www.w3.org/2000/svg">
<path d="M13.1395 13.8585L13.4574 14.1763L17.5629 18.2818L18.2808 17.5639L14.1753 13.4584L13.8574 13.1405L14.1344 12.7864C15.1756 11.4556 15.7415 9.81459 15.7419 8.12486L13.1395 13.8585ZM13.1395 13.8585L12.7855 14.1354M13.1395 13.8585L12.7855 14.1354M12.7855 14.1354C11.4548 15.176 9.81416 15.7416 8.12486 15.7419L12.7855 14.1354ZM8.12476 15.7419C3.92541 15.7419 0.507804 12.3242 0.507804 8.12486C0.507804 3.92547 3.92547 0.507804 8.12486 0.507804C12.3242 0.507804 15.7419 3.9254 15.7419 8.12474L8.12476 15.7419ZM14.7263 8.12486C14.7263 4.48376 11.766 1.52341 8.12486 1.52341C4.48376 1.52341 1.52341 4.48376 1.52341 8.12486C1.52341 11.766 4.48376 14.7263 8.12486 14.7263C11.766 14.7263 14.7263 11.766 14.7263 8.12486Z" stroke="#E43F6F"/>
</svg>
