<svg width="19" height="19" viewBox="0 0 19 19" fill="none" xmlns="http://www.w3.org/2000/svg">
<path d="M19 17.8821L14.0492 12.9313C15.3352 11.3584 15.9675 9.35145 15.8153 7.32548C15.6631 5.29951 14.738 3.40955 13.2314 2.04652C11.7248 0.6835 9.7519 -0.0483058 7.72085 0.00247667C5.6898 0.0532592 3.75597 0.882745 2.31936 2.31936C0.882745 3.75597 0.0532592 5.6898 0.00247667 7.72085C-0.0483058 9.7519 0.6835 11.7248 2.04652 13.2314C3.40955 14.738 5.29951 15.6631 7.32548 15.8153C9.35145 15.9675 11.3584 15.3352 12.9313 14.0492L17.8821 19L19 17.8821ZM7.93144 14.2563C6.68049 14.2563 5.45763 13.8854 4.41751 13.1904C3.37738 12.4954 2.5667 11.5076 2.08799 10.3519C1.60927 9.19615 1.48402 7.92442 1.72806 6.69751C1.97211 5.4706 2.5745 4.34361 3.45905 3.45905C4.34361 2.5745 5.4706 1.97211 6.69751 1.72806C7.92442 1.48402 9.19615 1.60927 10.3519 2.08799C11.5076 2.5667 12.4954 3.37738 13.1904 4.41751C13.8854 5.45763 14.2563 6.68049 14.2563 7.93144C14.2545 9.60833 13.5875 11.216 12.4017 12.4017C11.216 13.5875 9.60833 14.2545 7.93144 14.2563Z" fill="#8391A1"/>
</svg>
