<svg width="19" height="24" viewBox="0 0 19 24" fill="none" xmlns="http://www.w3.org/2000/svg">
<path d="M16.4559 3.14445H14.2847V2.17311C14.2847 1.85884 13.9419 1.71601 13.6276 1.71601H11.942C11.5421 0.573237 10.5421 0.00184982 9.39937 0.00184982C8.26917 -0.0406392 7.24118 0.652364 6.8567 1.71601H5.19968C4.88542 1.71601 4.57115 1.85884 4.57115 2.17311V3.14445H2.39984C1.11314 3.15818 0.0604799 4.17321 0 5.45854V21.8287C0 23.0858 1.14277 24 2.39984 24H16.4559C17.713 24 18.8558 23.0858 18.8558 21.8287V5.4586C18.7953 4.17321 17.7426 3.15818 16.4559 3.14445ZM5.71387 2.85879H7.2852C7.55949 2.82532 7.77981 2.61665 7.82804 2.34454C7.99723 1.60774 8.64364 1.07884 9.39937 1.05894C10.1481 1.08163 10.7848 1.61217 10.9421 2.34454C10.9933 2.62605 11.2282 2.8374 11.5135 2.85879H13.142V5.14433H5.71387V2.85879ZM17.713 21.8288C17.713 22.4573 17.0845 22.8573 16.4559 22.8573H2.39984C1.77131 22.8573 1.14277 22.4573 1.14277 21.8288V5.4586C1.20107 4.80437 1.74309 4.29926 2.39984 4.28728H4.5711V5.74432C4.60128 6.06444 4.87853 6.3039 5.19963 6.28716H13.6275C13.9546 6.30504 14.2405 6.06887 14.2846 5.74432V4.28723H16.4559C17.1126 4.29926 17.6547 4.80431 17.7129 5.45854V21.8288H17.713Z" fill="#D4D4D4"/>
<path d="M7.22803 12.7723C7.01373 12.5464 6.65796 12.5337 6.42807 12.7438L4.59962 14.4865L3.82825 13.6865C3.61395 13.4606 3.25818 13.448 3.02829 13.658C2.80699 13.8899 2.80699 14.2546 3.02829 14.4865L4.19961 15.6864C4.30099 15.7999 4.44743 15.8627 4.59956 15.8579C4.75027 15.8557 4.89403 15.7941 4.99952 15.6864L7.22792 13.5723C7.44884 13.3697 7.46361 13.0262 7.2609 12.8054C7.25051 12.7938 7.23951 12.7828 7.22803 12.7723Z" fill="#D4D4D4"/>
<path d="M15.4275 14.0008H8.85656C8.54099 14.0008 8.28518 14.2566 8.28518 14.5722C8.28518 14.8878 8.54099 15.1436 8.85656 15.1436H15.4275C15.7431 15.1436 15.9989 14.8878 15.9989 14.5722C15.9989 14.2566 15.7431 14.0008 15.4275 14.0008Z" fill="#D4D4D4"/>
<path d="M7.22803 8.20126C7.01373 7.97536 6.65796 7.96262 6.42807 8.17271L4.59962 9.91542L3.82825 9.11546C3.61395 8.88956 3.25818 8.87682 3.02829 9.08691C2.80699 9.31877 2.80699 9.68356 3.02829 9.91542L4.19961 11.1153C4.30099 11.2289 4.44743 11.2916 4.59956 11.2868C4.75027 11.2846 4.89403 11.223 4.99952 11.1153L7.22792 9.00122C7.44884 8.79856 7.46361 8.45515 7.2609 8.23429C7.25051 8.22275 7.23951 8.21176 7.22803 8.20126Z" fill="#D4D4D4"/>
<path d="M15.4275 9.42971H8.85656C8.54099 9.42971 8.28518 9.68552 8.28518 10.0011C8.28518 10.3167 8.54099 10.5725 8.85656 10.5725H15.4275C15.7431 10.5725 15.9989 10.3167 15.9989 10.0011C15.9989 9.68552 15.7431 9.42971 15.4275 9.42971Z" fill="#D4D4D4"/>
<path d="M7.22803 17.3434C7.01373 17.1175 6.65796 17.1048 6.42807 17.3148L4.59962 19.0575L3.82825 18.2576C3.61395 18.0317 3.25818 18.019 3.02829 18.229C2.80699 18.4609 2.80699 18.8257 3.02829 19.0575L4.19961 20.2575C4.30099 20.371 4.44743 20.4338 4.59956 20.4289C4.75027 20.4268 4.89403 20.3651 4.99952 20.2575L7.22792 18.1433C7.44884 17.9407 7.46361 17.5973 7.2609 17.3764C7.25051 17.3649 7.23951 17.3539 7.22803 17.3434Z" fill="#D4D4D4"/>
<path d="M15.4275 18.5719H8.85656C8.54099 18.5719 8.28518 18.8277 8.28518 19.1433C8.28518 19.4589 8.54099 19.7147 8.85656 19.7147H15.4275C15.7431 19.7147 15.9989 19.4589 15.9989 19.1433C15.9989 18.8277 15.7431 18.5719 15.4275 18.5719Z" fill="#D4D4D4"/>
</svg>
