<svg width="19" height="19" viewBox="0 0 19 19" fill="none" xmlns="http://www.w3.org/2000/svg">
<path d="M13.1395 13.8585L13.4574 14.1763L17.5629 18.2819L18.2808 17.5639L14.1753 13.4584L13.8574 13.1405L14.1344 12.7864C15.1756 11.4556 15.7415 9.8146 15.7419 8.12487L13.1395 13.8585ZM13.1395 13.8585L12.7855 14.1354M13.1395 13.8585L12.7855 14.1354M12.7855 14.1354C11.4548 15.176 9.81417 15.7416 8.12487 15.7419L12.7855 14.1354ZM8.12477 15.7419C3.92542 15.7419 0.507804 12.3242 0.507804 8.12487C0.507804 3.92547 3.92547 0.507804 8.12487 0.507804C12.3242 0.507804 15.7419 3.92541 15.7419 8.12475L8.12477 15.7419ZM14.7263 8.12487C14.7263 4.48377 11.766 1.52341 8.12487 1.52341C4.48377 1.52341 1.52341 4.48377 1.52341 8.12487C1.52341 11.766 4.48377 14.7263 8.12487 14.7263C11.766 14.7263 14.7263 11.766 14.7263 8.12487Z" stroke="#D4D4D4"/>
</svg>
